<svg id="b2a89d0b-400c-4fbb-be4d-a8f72054a7dd" data-name="CP_BildWortmarke" xmlns="http://www.w3.org/2000/svg" viewBox="0 0 841.89 250">
  <defs>
    <style>
      .aeaecead-de9d-4fdb-8d34-1d2c08d25dcf {
        fill: #6da40c;
      }

      .b7a4825f-276a-492c-82f1-0db1c6692548 {
        fill: #677680;
      }

      .b17a4233-96f4-4aa9-8056-ea9e13303b53 {
        fill: #fff;
      }
    </style>
  </defs>
  <title>CP_BildWortmarke</title>
  <g>
    <g id="b5836228-e860-4ea6-9219-6994403a579f" data-name="Wording">
      <path class="aeaecead-de9d-4fdb-8d34-1d2c08d25dcf" d="M804.226,145.263v-4.006c0-1.144-.8-1.6-2.4-1.6h-6.409c-4.578,0-6.181-.916-6.181-7.211V92.5h12.362a2.3,2.3,0,0,0,2.289-2.289V86.319a2.3,2.3,0,0,0-2.289-2.289H789.232V71.555a1.819,1.819,0,0,0-1.716-1.946h-.344l-5.951.916a2.33,2.33,0,0,0-2.061,2.289V84.03h-11.1a2.013,2.013,0,0,0-2.174,2.06v3.091c0,1.259.915,1.945,2.174,2.06l11.1,1.259v39.944c0,12.59,5.036,15.337,15.566,15.337a55.746,55.746,0,0,0,7.44-.572c1.488-.229,2.06-.916,2.06-1.946m-46.7-.572V107.036c0-15.223-6.18-23.807-19.915-23.807-6.753,0-11.9,1.717-18.2,5.265V86.319a2.2,2.2,0,0,0-2.175-2.289h-5.722a2.2,2.2,0,0,0-2.175,2.289v58.372a2.275,2.275,0,0,0,2.175,2.289h5.608a2.373,2.373,0,0,0,2.289-2.289v-48.3c5.265-2.632,10.644-4.463,15.451-4.463,8.7,0,12.59,3.548,12.59,15.108v37.655a2.3,2.3,0,0,0,2.289,2.289h5.494a2.3,2.3,0,0,0,2.289-2.289m-72.105-33.65h-30.33v-1.03c0-12.361,5.493-17.969,15.337-17.969,10.071,0,14.993,5.036,14.993,17.969Zm10.187,5.151v-6.181c0-16.252-8.47-26.782-25.18-26.782-16.367,0-25.409,10.415-25.409,26.782v10.3c0,21.289,12.819,27.469,25.981,27.469a103.8,103.8,0,0,0,20.487-1.945c1.831-.344,2.289-1.145,2.289-2.633v-3.891a1.622,1.622,0,0,0-1.831-1.6h-.572A156.7,156.7,0,0,1,671,138.968c-10.53,0-15.909-5.036-15.909-18.656v-1.6h38.342c1.373,0,2.175-1.03,2.175-2.518m-64.094,28.5V104.174c0-15.909-8.24-21.059-18.541-21.059a45.939,45.939,0,0,0-19,4.692c-2.861-3.319-6.524-4.692-11.445-4.692-6.295,0-12.132,2.518-16.71,5.379V86.319a2.2,2.2,0,0,0-2.175-2.289h-5.723a2.2,2.2,0,0,0-2.174,2.289v58.372a2.1,2.1,0,0,0,1.945,2.289h6.066a2.177,2.177,0,0,0,2.061-2.289v-48.3c4.807-2.4,9.843-4.463,13.963-4.463,5.952,0,8.813,2.06,8.813,12.017v40.746a2.1,2.1,0,0,0,1.946,2.289h6.066a2.177,2.177,0,0,0,2.06-2.289V103.945a34.172,34.172,0,0,0-1.03-8.927c4.464-1.717,9.271-3.09,13.391-3.09,5.952,0,10.415,2.632,10.415,12.246v40.517a2.3,2.3,0,0,0,2.289,2.289h5.494a2.3,2.3,0,0,0,2.289-2.289m-99.688-33.65H501.5v-1.03c0-12.361,5.494-17.969,15.337-17.969,10.072,0,14.994,5.036,14.994,17.969Zm10.186,5.151v-6.181c0-16.252-8.47-26.782-25.18-26.782-16.367,0-25.409,10.415-25.409,26.782v10.3c0,21.289,12.819,27.469,25.981,27.469a103.8,103.8,0,0,0,20.488-1.945c1.831-.344,2.289-1.145,2.289-2.633v-3.891a1.622,1.622,0,0,0-1.831-1.6h-.573a156.686,156.686,0,0,1-20.373,1.259c-10.529,0-15.909-5.036-15.909-18.656v-1.6h38.342c1.374,0,2.175-1.03,2.175-2.518m-65.238,28.5V63.085a2.08,2.08,0,0,0-2.06-2.175h-5.951a2.078,2.078,0,0,0-2.061,2.175v81.606a2.183,2.183,0,0,0,2.061,2.289h5.951a2.177,2.177,0,0,0,2.06-2.289M441.984,119.74c0,12.247-3.663,19.572-14.879,19.572a89.346,89.346,0,0,1-13.391-1.145V92.843A84.735,84.735,0,0,1,427.105,91.7c11.331,0,14.879,7.783,14.879,19.8Zm10.072,0V111.5c0-17.168-7.9-28.27-24.951-28.27a94.664,94.664,0,0,0-21.06,2.633c-2.06.457-2.4,1.144-2.4,2.632v78.745a2.079,2.079,0,0,0,2.06,2.174h5.837a2.173,2.173,0,0,0,2.175-2.174V146.522a84.484,84.484,0,0,0,13.391,1.259c16.71,0,24.951-10.072,24.951-28.041"/>
      <path class="b7a4825f-276a-492c-82f1-0db1c6692548" d="M388.077,144.691V107.035c0-15.222-6.18-23.806-19.915-23.806-6.753,0-11.9,1.717-18.2,5.265V86.319a2.2,2.2,0,0,0-2.175-2.289h-5.722a2.2,2.2,0,0,0-2.175,2.289v58.372a2.275,2.275,0,0,0,2.175,2.289h5.608a2.374,2.374,0,0,0,2.289-2.289v-48.3c5.265-2.632,10.644-4.464,15.451-4.464,8.7,0,12.59,3.548,12.59,15.108v37.656a2.3,2.3,0,0,0,2.289,2.289h5.494a2.3,2.3,0,0,0,2.289-2.289m-71.762-24.837c0,11.789-4.807,19.114-15.452,19.114-10.758,0-15.337-7.44-15.337-19.114v-8.7c0-11.789,4.693-19.114,15.337-19.114,10.759,0,15.452,7.439,15.452,19.114Zm10.072,0v-8.7c0-16.825-8.7-27.927-25.524-27.927s-25.409,11.1-25.409,27.927v8.7c0,16.825,8.584,27.927,25.409,27.927s25.524-11.1,25.524-27.927M268.816,144v-4.12a1.746,1.746,0,0,0-1.946-1.717h-.458a111.657,111.657,0,0,1-14.192.8c-9.271,0-14.307-6.181-14.307-19v-8.928c0-12.933,5.151-19,14.307-19a111.657,111.657,0,0,1,14.192.8h.458a1.746,1.746,0,0,0,1.946-1.717v-4.12c0-1.6-.458-2.175-2.289-2.518a84.077,84.077,0,0,0-14.307-1.259c-15.68,0-24.379,10.987-24.379,27.812v8.928c0,16.824,8.813,27.812,24.379,27.812a82.986,82.986,0,0,0,14.307-1.259c1.831-.343,2.289-1.03,2.289-2.518"/>
      <path class="b7a4825f-276a-492c-82f1-0db1c6692548" d="M804.693,201.938c0-2.882-1.921-4.323-5.545-6.331l-2.925-1.616c-2.663-1.484-4.235-2.619-4.235-4.54,0-3.1,2.139-3.668,4.934-3.668a52.368,52.368,0,0,1,6.068.48c.655.088.917,0,.917-.7v-.35c0-.567-.305-.654-.917-.742a45.156,45.156,0,0,0-6.243-.393c-3.449,0-6.68,1.31-6.68,5.371,0,2.969,2.008,4.409,5.283,6.2l2.794,1.529c3.668,2.008,4.628,2.969,4.628,4.759,0,3.536-2.4,4.366-5.545,4.366a44.261,44.261,0,0,1-6.418-.7c-.524-.087-.961.088-.961.611v.481c0,.48.35.567.961.7a39.378,39.378,0,0,0,6.331.612c4.06,0,7.553-1.4,7.553-6.069M786.4,185.084v-.349c0-.524-.481-.655-1.179-.655a10.375,10.375,0,0,0-6.069,2.009v-.917a.805.805,0,0,0-.786-.873h-.349a.8.8,0,0,0-.786.873v21.743a.859.859,0,0,0,.829.83h.262a.859.859,0,0,0,.83-.83V187.791a10.9,10.9,0,0,1,6.069-2.008c.7,0,1.179-.131,1.179-.7m-16.547,9.65H756.187v-.219c0-5.195,2.052-8.732,6.9-8.732,4.934,0,6.768,3.187,6.768,8.689Zm1.921.916v-1.178c0-6.2-2.664-10.392-8.689-10.392-5.763,0-8.819,4.41-8.819,10.435V197.4c0,8.252,4.409,10.61,9.823,10.61a34.6,34.6,0,0,0,6.55-.743c.654-.131.829-.349.829-.829v-.306c0-.567-.48-.655-.917-.567a34.585,34.585,0,0,1-6.462.742c-4.366,0-7.9-1.572-7.9-8.907v-.917h14.757a.829.829,0,0,0,.83-.83m-23.4,11.527V176.134a.786.786,0,0,0-.743-.83h-.436a.786.786,0,0,0-.743.83v31.043a.786.786,0,0,0,.743.83h.436a.786.786,0,0,0,.743-.83m-9.737-9.78c0,5.632-1.746,8.907-6.636,8.907a39.9,39.9,0,0,1-6.069-.568V186.351a35.193,35.193,0,0,1,6.069-.568c4.8,0,6.636,2.969,6.636,8.732Zm1.921,0v-2.882c0-6.9-2.881-10.435-8.557-10.435a32.237,32.237,0,0,0-6.069.655v-8.6a.786.786,0,0,0-.742-.83h-.437a.785.785,0,0,0-.742.83v30.213c0,.524.131.7.655.83a39.949,39.949,0,0,0,7.335.83c6.025,0,8.557-4.323,8.557-10.61m-24.581,6.68a14.925,14.925,0,0,1-7.466,2.227c-2.619,0-4.759-1.266-4.759-5.327v-.567c0-3.712,2.271-5.022,8.864-5.022h3.361Zm1.922,2.794V192.114c0-4.716-1.529-8.034-7.423-8.034a44.684,44.684,0,0,0-6.2.393c-.655.088-1,.219-1,.786v.262c0,.655.568.7,1,.655a47.238,47.238,0,0,1,6.2-.393c4.235,0,5.5,1.79,5.5,6.331v1.572h-3.361c-7.947,0-10.785,2.226-10.785,6.724v.567c0,5.458,3.406,7.03,6.68,7.03a15.729,15.729,0,0,0,7.423-2.227v1.091a.876.876,0,0,0,.873.874h.218a.876.876,0,0,0,.874-.874m-21.307.044v-14.5c0-6.069-3.493-8.34-7.684-8.34a16.777,16.777,0,0,0-7.03,1.79v-.7a.8.8,0,0,0-.786-.873h-.349a.805.805,0,0,0-.786.873v21.743a.859.859,0,0,0,.83.83h.262a.859.859,0,0,0,.829-.83V187.573a16.7,16.7,0,0,1,6.9-1.79c3.274,0,5.894,1.659,5.894,6.637v14.5a.821.821,0,0,0,.786.83h.306a.829.829,0,0,0,.829-.83m-24.013-12.181H658.911v-.219c0-5.195,2.052-8.732,6.9-8.732,4.933,0,6.767,3.187,6.767,8.689Zm1.921.916v-1.178c0-6.2-2.663-10.392-8.688-10.392-5.764,0-8.82,4.41-8.82,10.435V197.4c0,8.252,4.41,10.61,9.824,10.61a34.587,34.587,0,0,0,6.549-.743c.655-.131.83-.349.83-.829v-.306c0-.567-.481-.655-.917-.567a34.6,34.6,0,0,1-6.462.742c-4.366,0-7.9-1.572-7.9-8.907v-.917h14.758a.829.829,0,0,0,.829-.83m-32.789,11.527V176.134a.786.786,0,0,0-.742-.83h-.437a.786.786,0,0,0-.742.83v31.043a.786.786,0,0,0,.742.83h.437a.786.786,0,0,0,.742-.83m-10.391-3.1a14.925,14.925,0,0,1-7.466,2.227c-2.62,0-4.759-1.266-4.759-5.327v-.567c0-3.712,2.27-5.022,8.863-5.022h3.362Zm1.921,2.794V192.114c0-4.716-1.528-8.034-7.422-8.034a44.672,44.672,0,0,0-6.2.393c-.655.088-1,.219-1,.786v.262c0,.655.567.7,1,.655a47.226,47.226,0,0,1,6.2-.393c4.235,0,5.5,1.79,5.5,6.331v1.572h-3.362c-7.946,0-10.784,2.226-10.784,6.724v.567c0,5.458,3.4,7.03,6.68,7.03a15.722,15.722,0,0,0,7.422-2.227v1.091a.876.876,0,0,0,.874.874h.218a.876.876,0,0,0,.873-.874m-20,.306v-.262c0-.393-.262-.611-.917-.611h-2.1c-1.921,0-3.012-.393-3.012-3.013v-17.2h5.2c.481,0,.83-.262.83-.7v-.437c0-.436-.349-.654-.83-.654h-5.2v-4.5a.752.752,0,0,0-.7-.829h-.48a.758.758,0,0,0-.743.829v4.5h-4.322c-.48,0-.83.218-.83.654v.437c0,.437.35.7.83.7H605.3v17.2c0,3.755,1.834,4.716,4.934,4.716a18.78,18.78,0,0,0,2.271-.131c.611-.088.742-.35.742-.7m-18.338,0V185.128a.859.859,0,0,0-.829-.829h-.262a.859.859,0,0,0-.83.829v22.049a.859.859,0,0,0,.83.83h.262a.859.859,0,0,0,.829-.83m0-28.03v-3.231a.859.859,0,0,0-.829-.83h-.262a.859.859,0,0,0-.83.83v3.231a.829.829,0,0,0,.83.829h.262a.829.829,0,0,0,.829-.829m-9.736,30.475c0,3.231-1.528,5.152-7.335,5.152-5.589,0-7.379-2.008-7.379-5.152v-.393a6.34,6.34,0,0,1,3.187-5.807l6.026,1.572c4.366,1.135,5.5,1.877,5.5,4.322Zm-.218-17.683c0,3.013-1.4,5.458-7.161,5.458-5.981,0-7.073-3.275-7.073-5.458v-.349c0-2.794,1.048-5.632,7.073-5.632,5.676,0,7.161,2.488,7.161,5.632Zm2.576-6.462V185a.752.752,0,0,0-.83-.7H577.79c-7.466,0-8.994,3.929-8.994,7.291v.349a6.354,6.354,0,0,0,2.27,5.2,3.054,3.054,0,0,0-1.833,2.794,2.927,2.927,0,0,0,2.314,2.926l.3.087a7.639,7.639,0,0,0-3.274,6.287v.393c0,3.973,2.532,6.768,9.256,6.768,6.9,0,9.256-2.838,9.256-6.768v-.306c0-3.754-2.489-4.8-6.986-5.981l-7.859-2.052c-1-.262-1.266-.786-1.266-1.354a2.063,2.063,0,0,1,1.485-1.877,12.877,12.877,0,0,0,5.326,1c6.855,0,9.038-3.144,9.038-7.117v-.349a6.468,6.468,0,0,0-2.4-5.414h2.27c.437,0,.83-.218.83-.7m-24.843,21.7V185.128a.859.859,0,0,0-.83-.829h-.262a.859.859,0,0,0-.829.829v22.049a.859.859,0,0,0,.829.83h.262a.859.859,0,0,0,.83-.83m0-28.03v-3.231a.859.859,0,0,0-.83-.83h-.262a.859.859,0,0,0-.829.83v3.231a.829.829,0,0,0,.829.829h.262a.829.829,0,0,0,.83-.829m-10.391,26.589a39.914,39.914,0,0,1-6.069.568c-4.89,0-6.637-3.275-6.637-8.907v-2.882c0-5.763,1.834-8.732,6.637-8.732a35.212,35.212,0,0,1,6.069.568Zm1.921.611V176.134a.786.786,0,0,0-.743-.83h-.436a.785.785,0,0,0-.742.83v8.6a32.255,32.255,0,0,0-6.069-.655c-5.676,0-8.558,3.537-8.558,10.435V197.4c0,6.287,2.532,10.61,8.558,10.61a39.96,39.96,0,0,0,7.335-.83c.524-.131.655-.306.655-.83m-32.658-11.613H507.89v-.219c0-5.195,2.052-8.732,6.9-8.732,4.934,0,6.768,3.187,6.768,8.689Zm1.921.916v-1.178c0-6.2-2.663-10.392-8.689-10.392-5.763,0-8.819,4.41-8.819,10.435V197.4c0,8.252,4.41,10.61,9.824,10.61a34.6,34.6,0,0,0,6.549-.743c.655-.131.829-.349.829-.829v-.306c0-.567-.48-.655-.917-.567a34.575,34.575,0,0,1-6.461.742c-4.367,0-7.9-1.572-7.9-8.907v-.917h14.757a.829.829,0,0,0,.83-.83M500.73,207.177V192.463c0-4.89-2.27-8.383-8.339-8.383a25.651,25.651,0,0,0-5.9.786v-8.732a.785.785,0,0,0-.742-.83h-.436a.786.786,0,0,0-.743.83v31.043a.786.786,0,0,0,.743.83h.436a.785.785,0,0,0,.742-.83V186.569a23.444,23.444,0,0,1,5.9-.786c4.671,0,6.461,2.4,6.461,6.68v14.714a.752.752,0,0,0,.7.83h.437a.758.758,0,0,0,.742-.83m-20.957,0v-.262c0-.393-.262-.611-.917-.611h-2.1c-1.921,0-3.012-.393-3.012-3.013v-17.2h5.195c.481,0,.83-.262.83-.7v-.437c0-.436-.349-.654-.83-.654h-5.195v-4.5a.752.752,0,0,0-.7-.829h-.48a.758.758,0,0,0-.742.829v4.5H467.5c-.48,0-.829.218-.829.654v.437c0,.437.349.7.829.7h4.323v17.2c0,3.755,1.833,4.716,4.933,4.716a18.767,18.767,0,0,0,2.271-.131c.611-.088.742-.35.742-.7"/>
    </g>
    <g id="b35b0959-2795-4a6b-9270-db9bd454547f" data-name="Logo_Bildmarke">
      <path id="a40e41f9-cb0d-4098-8889-47a4eed9604e" data-name="BG" class="aeaecead-de9d-4fdb-8d34-1d2c08d25dcf" d="M37.2,115.909a82.3,82.3,0,1,0,82.3-82.3,82.3,82.3,0,0,0-82.3,82.3"/>
      <g id="a1386404-d0cc-4d03-bf73-2727381baf9a" data-name="CP_Double_Line">
        <path class="b17a4233-96f4-4aa9-8056-ea9e13303b53" d="M124.189,146.615c6.595-6.5,10.271-11.23,17.321-9.579a6.028,6.028,0,0,1,.721.2c5.8,1.768,11.565,2.325,17.459.593,9.582-2.817,17.323-12.557,17.849-22.51.626-11.857-5.366-22.021-15.385-26.1-10.694-4.35-21.379-2.131-29.5,6.049q-10.105,10.177-20.275,20.294c-3.835,3.746-7.7,7.47-11.5,11.167A19.158,19.158,0,0,1,71.614,124.1c-4.75-6.845-4.961-14.259-.552-21.325,4.167-6.678,9.468-10.235,18.308-9.2a33.588,33.588,0,0,1,5.173.97c2.045.553,8.373,1.289,9.423-2.472.371-1.329-8.315-3.591-8.315-3.591-5.785-1.511-10.741-1.858-16.349-.209-9.582,2.817-17.323,12.556-17.849,22.509-.626,11.857,5.366,22.021,15.385,26.1,10.693,4.35,21.107,1.853,29.5-6.048,3.775-3.553,7.534-7.253,11.287-11,.3-.253.588-.523.874-.813q4.8-4.872,9.611-9.728l.37-.371c.69-.693,1.385-1.382,2.077-2.074a8.42,8.42,0,0,0,.668-.668q3.429-3.42,6.893-6.805A19.16,19.16,0,0,1,167.378,102c4.75,6.845,4.961,14.258.552,21.325-4.167,6.678-10.174,9.971-18,9.42-.685-.048-1.842-.125-6.521-1.421-8.252-2.786-12.731.557-15.873,2.955,0,0-6.13,3.222-27.927,26.594a10.274,10.274,0,0,0-2.928,8.822,2.97,2.97,0,0,0,1.243,2.359c.607.265,1.4-.618,1.988-1.2,8.108-8.062,16.128-16.214,24.272-24.24"/>
        <path class="b17a4233-96f4-4aa9-8056-ea9e13303b53" d="M188.607,104.958c-4.968-24.356-32.81-37.044-54.79-25.174,0,0-6.818,2.914-28.614,26.286a10.27,10.27,0,0,0-2.928,8.822,3.082,3.082,0,0,0,1,2.214c.678.351,1.648-.473,2.234-1.056,8.109-8.062,16.129-16.214,24.272-24.24,13.168-12.977,33.286-12.357,45.179,1.716,7.932,9.387,9.56,20.281,4.634,31.572-4.952,11.351-13.938,17.514-26.426,18.256a31.212,31.212,0,0,1-11.561-1.559c-2.909-.708-5.048-1.565-14.538,8.284-7.847,8.144-15.985,16-23.983,24-.556.555-1.394,1.081-1.1,1.908.191.533,1.128.788,1.9.9a9.861,9.861,0,0,0,9.024-3.067c6.493-6.595,12.987-13.192,19.62-19.646,5-4.864,6.462-5.221,10.913-4.345.111.042,2.383.5,2.383.5,24.939,4.1,48.431-17.663,42.781-45.366"/>
        <path class="b17a4233-96f4-4aa9-8056-ea9e13303b53" d="M133.789,120.035a10.275,10.275,0,0,0,2.928-8.822c-.124-1.011-.333-2.024-1.182-2.456-.643-.327-1.462.714-2.049,1.3-8.108,8.063-16.128,16.215-24.272,24.241-13.167,12.977-33.285,12.357-45.178-1.716C56.1,123.192,54.475,112.3,59.4,101.007,64.354,89.656,73.34,83.492,85.828,82.751a37.326,37.326,0,0,1,12.428,1.506c4.6,1.485,6.254,3.51,7.684,3.229.87-.17,2.306-8.408-10.724-11.314C69.544,70.446,44.58,92.686,50.385,121.147c4.967,24.356,32.81,37.044,54.789,25.174,0,0,6.818-2.914,28.615-26.286"/>
      </g>
    </g>
  </g>
</svg>
